<?xml version="1.0" encoding="UTF-8" standalone="no"?>
<svg xmlns="http://www.w3.org/2000/svg" viewBox="-.6 -0.7 70 70">
 <path fill="#005ca6" d="M33.2 17.8c-2.5 0-5 .5-7.4 1.5a23 23 0 0 0-12.2 13.5A28.9 28.9 0 0 0 14.8 54a26.7 26.7 0 0 0 24 15.3c5 0 10-1.4 14.6-4a33.4 33.4 0 0 0 14.7-22 39 39 0 0 0-5.7-28.6A34.8 34.8 0 0 0 33.5-.7c-13 0-24.7 7-31.4 18.6-.6 1.1-1.5 2.6-1.9 4 0 .3-.2 1 0 1.3.3.2.7.3 1 .3.5 0 1-.6 1.9-2 4-6 8.5-10.3 13.8-13.4 4.8-2.5 10.1-4 15.4-4 12.5 0 23.4 7.5 28.2 19.3a31.6 31.6 0 0 1 0 23 24.7 24.7 0 0 1-13.7 13.9 21 21 0 0 1-7.1 1.2c-9.4 0-17-6-19.1-15.2-1-5 .2-10.3 3-14 1.6-2.2 4.5-4.8 9.2-4.9 2.9 0 5.8 1.5 7.5 3.8a7 7 0 0 1 1.3 5.6c-.4 1.6-1.9 3.4-3.2 3.4-.3 0-.7-.1-1-.4-.3-.3-.3-.6-.4-1.1 0-.8-.2-2-1.9-2.8l-1-.1c-2.4 0-4 2.4-4.5 4.8a8 8 0 0 0 1.8 6.3 10.2 10.2 0 0 0 8.5 3.5 12 12 0 0 0 8.9-5.8c2.4-3.8 3-9 1.8-13.7a18 18 0 0 0-17.4-13"/>
</svg>