<?xml version="1.0" standalone="no"?>
<!DOCTYPE svg PUBLIC "-//W3C//DTD SVG 20010904//EN"
 "http://www.w3.org/TR/2001/REC-SVG-20010904/DTD/svg10.dtd">
<svg version="1.0" xmlns="http://www.w3.org/2000/svg"
 width="240.000000pt" height="240.000000pt" viewBox="0 0 240.000000 240.000000"
 preserveAspectRatio="xMidYMid meet">
<metadata>
Created by potrace 1.11, written by Peter Selinger 2001-2013
</metadata>
<g transform="translate(0.000000,240.000000) scale(0.100000,-0.100000)"
fill="#000000" stroke="none">
<path d="M0 1200 l0 -1200 1200 0 1200 0 0 1200 0 1200 -1200 0 -1200 0 0
-1200z m1400 533 c0 -5 -59 -248 -132 -540 l-133 -533 -67 0 c-38 0 -68 3 -68
8 0 4 59 247 132 540 l133 532 67 0 c38 0 68 -3 68 -7z m-470 -268 l0 -75
-185 -92 c-102 -51 -185 -95 -185 -98 0 -3 83 -47 185 -98 l185 -92 0 -75 0
-75 -270 135 -270 135 0 70 0 70 268 134 c147 74 268 135 270 135 1 1 2 -33 2
-74z m1080 -265 l0 -70 -270 -135 -270 -135 0 75 0 75 185 92 c102 51 185 95
185 98 0 3 -83 47 -185 98 l-185 92 0 75 0 75 270 -135 270 -135 0 -70z"/>
</g>
</svg>
